<svg width="512" height="512" viewBox="0 0 512 512" xmlns="http://www.w3.org/2000/svg">
  <!-- Tree trunk -->
  <rect x="216" y="400" width="80" height="90" fill="#8B4513"/>
  
  <!-- Tree layers - bottom -->
  <path d="M 256 420 L 140 300 L 180 300 L 100 220 L 150 220 L 70 130 L 256 130 L 442 130 L 362 220 L 412 220 L 332 300 L 372 300 Z" fill="#228B22"/>
  
  <!-- Ornaments -->
  <circle cx="200" cy="250" r="12" fill="#DC143C"/>
  <circle cx="280" cy="270" r="12" fill="#FFD700"/>
  <circle cx="320" cy="230" r="12" fill="#1E90FF"/>
  <circle cx="240" cy="300" r="12" fill="#FFD700"/>
  <circle cx="310" cy="300" r="12" fill="#DC143C"/>
  <circle cx="180" cy="200" r="12" fill="#1E90FF"/>
  <circle cx="260" cy="180" r="12" fill="#DC143C"/>
  <circle cx="330" cy="190" r="12" fill="#FFD700"/>
  
  <!-- Star on top -->
  <path d="M 256 50 L 266 85 L 302 85 L 273 105 L 283 140 L 256 120 L 229 140 L 239 105 L 210 85 L 246 85 Z" fill="#FFD700"/>
  
  <!-- Lights effect -->
  <circle cx="220" cy="180" r="6" fill="#FFFF00" opacity="0.8"/>
  <circle cx="290" cy="210" r="6" fill="#FFFF00" opacity="0.8"/>
  <circle cx="250" cy="250" r="6" fill="#FFFF00" opacity="0.8"/>
  <circle cx="200" cy="310" r="6" fill="#FFFF00" opacity="0.8"/>
  <circle cx="300" cy="330" r="6" fill="#FFFF00" opacity="0.8"/>
</svg>
